<svg width="1728" height="806" viewBox="0 0 1728 806" fill="none" xmlns="http://www.w3.org/2000/svg">
<path d="M420.88 578.535C584.896 578.535 1015.98 593.742 1015.98 488.239C1015.98 382.736 562.346 18.1501 398.329 18.1501C378.081 18.1501 261.001 87.2107 187 200.5C117.682 306.62 91.2289 456.818 72 474H275C322.849 471.538 375.601 578.535 420.88 578.535Z" fill="#BAD578"/>
<path d="M1645 474.172C1609.5 148 1292.45 0 1230.02 0C1094.52 0 816.955 310.454 720.886 474.172H1433.24H1645Z" fill="#BAD578"/>
<path d="M930.826 319.79C664.374 319.79 409.941 47.8402 278.116 163.758C181.751 284.744 119.172 356.718 128.4 482.857L1613.9 479.857C1584.4 388.857 1579.9 310.857 1428.9 294.857C1277.9 278.857 1117.2 319.79 930.826 319.79Z" fill="#8FB021"/>
<path d="M879.559 366.786C588.206 366.786 620.855 154.256 277.5 307.58C186.038 345.533 150.354 379.437 156 496L1515.19 482.991C1521.27 418.207 1522.19 349.491 1422.19 336.991C1270.26 339.127 1058.76 366.786 879.559 366.786Z" fill="#718D14"/>
<path d="M1204.4 321.62C940.979 104.998 527.108 457.459 277.932 541.328L1432.59 557.209V507.62C1379.97 465.059 1306.16 405.299 1204.4 321.62Z" fill="#698314"/>
<path d="M201.5 475H1434.5V629H246C151.32 564.94 57.4876 529.179 201.5 475Z" fill="#72910F"/>
<path d="M1026.39 544.634C1213.85 474.506 1554.51 476.305 1648.1 503.66L1702.1 557.301L1749.09 610.942L1756.37 811.942L6.60533 838.443C-56.6923 757.825 150.501 631.934 203.009 577.124C306.798 498.879 780.405 636.653 1026.39 544.634Z" fill="#72B8DF"/>
<path d="M362.154 443.58C362.569 441.415 365.667 441.415 366.082 443.58L381.778 525.457C382.014 526.69 381.069 527.833 379.813 527.833H348.422C347.167 527.833 346.222 526.69 346.458 525.457L362.154 443.58Z" fill="#343C00"/>
<path d="M403.706 418.247C404.121 416.082 407.219 416.082 407.634 418.247L423.33 500.123C423.566 501.357 422.621 502.5 421.366 502.5H389.974C388.719 502.5 387.774 501.357 388.01 500.123L403.706 418.247Z" fill="#343C00"/>
<path d="M380.125 422.283C381.163 416.871 388.909 416.871 389.946 422.283L402.012 485.225C402.603 488.308 400.241 491.167 397.102 491.167H372.97C369.831 491.167 367.468 488.308 368.059 485.225L380.125 422.283Z" fill="#343C00"/>
<path d="M416.729 443.58C417.144 441.415 420.243 441.415 420.658 443.58L436.354 525.457C436.59 526.69 435.645 527.833 434.389 527.833H402.998C401.743 527.833 400.798 526.69 401.034 525.457L416.729 443.58Z" fill="#53660D"/>
<path d="M458.565 443.58C458.98 441.415 462.079 441.415 462.494 443.58L478.189 525.457C478.426 526.69 477.481 527.833 476.225 527.833H444.834C443.578 527.833 442.633 526.69 442.87 525.457L458.565 443.58Z" fill="#53660D"/>
<path d="M434.701 468.95C435.738 463.538 443.485 463.538 444.522 468.95L456.588 531.892C457.179 534.975 454.816 537.833 451.677 537.833H427.546C424.407 537.833 422.044 534.975 422.635 531.892L434.701 468.95Z" fill="#53660D"/>
<path d="M487.43 418.247C487.845 416.082 490.943 416.082 491.358 418.247L507.054 500.123C507.29 501.357 506.345 502.5 505.09 502.5H473.699C472.443 502.5 471.498 501.357 471.734 500.123L487.43 418.247Z" fill="#53660D"/>
<path d="M529.266 418.247C529.681 416.082 532.779 416.082 533.194 418.247L548.89 500.123C549.126 501.357 548.181 502.5 546.926 502.5H515.534C514.279 502.5 513.334 501.357 513.57 500.123L529.266 418.247Z" fill="#53660D"/>
<path d="M497.507 460.95C498.545 455.538 506.291 455.538 507.329 460.95L519.394 523.892C519.985 526.975 517.623 529.833 514.484 529.833H490.352C487.213 529.833 484.851 526.975 485.442 523.892L497.507 460.95Z" fill="#53660D"/>
<path d="M972.63 377.984C973.015 375.775 976.186 375.775 976.571 377.984L996.799 494.174C997.012 495.397 996.071 496.517 994.829 496.517H954.371C953.13 496.517 952.188 495.397 952.401 494.174L972.63 377.984Z" fill="#343C00"/>
<path d="M1024.72 378.651C1025.11 376.441 1028.28 376.441 1028.67 378.651L1048.89 494.84C1049.11 496.064 1048.17 497.183 1046.92 497.183H1006.47C1005.22 497.183 1004.28 496.064 1004.5 494.84L1024.72 378.651Z" fill="#343C00"/>
<path d="M995.779 398.701C996.74 393.178 1004.67 393.178 1005.63 398.701L1022.29 494.4C1022.82 497.458 1020.47 500.257 1017.37 500.257H984.043C980.939 500.257 978.585 497.458 979.117 494.4L995.779 398.701Z" fill="#343C00"/>
<path d="M877.742 402.167C878.127 399.958 881.299 399.958 881.683 402.167L901.912 518.357C902.125 519.58 901.183 520.7 899.942 520.7H859.484C858.242 520.7 857.301 519.58 857.514 518.357L877.742 402.167Z" fill="#53660D"/>
<path d="M946.555 401.984C946.94 399.775 950.111 399.775 950.496 401.984L970.724 518.174C970.937 519.397 969.996 520.517 968.754 520.517H928.296C927.055 520.517 926.113 519.397 926.326 518.174L946.555 401.984Z" fill="#53660D"/>
<path d="M911.434 424.217C912.396 418.694 920.325 418.694 921.286 424.217L937.948 519.916C938.48 522.975 936.126 525.774 933.022 525.774H899.699C896.595 525.774 894.241 522.975 894.773 519.916L911.434 424.217Z" fill="#53660D"/>
<path d="M1064.42 365.317C1064.8 363.108 1067.97 363.108 1068.36 365.317L1088.59 481.507C1088.8 482.73 1087.86 483.85 1086.62 483.85H1046.16C1044.92 483.85 1043.97 482.73 1044.19 481.507L1064.42 365.317Z" fill="#53660D"/>
<path d="M1128.79 365.984C1129.18 363.775 1132.35 363.775 1132.73 365.984L1152.96 482.174C1153.18 483.397 1152.23 484.517 1150.99 484.517H1110.53C1109.29 484.517 1108.35 483.397 1108.56 482.174L1128.79 365.984Z" fill="#53660D"/>
<path d="M1098.11 387.367C1099.07 381.844 1107 381.844 1107.96 387.367L1124.62 483.066C1125.15 486.125 1122.8 488.924 1119.7 488.924H1086.37C1083.27 488.924 1080.91 486.125 1081.45 483.066L1098.11 387.367Z" fill="#53660D"/>
</svg>
