<svg width="603" height="180" viewBox="0 0 603 180" fill="none" xmlns="http://www.w3.org/2000/svg">
<path d="M105.29 113.322C69.8373 96.6851 56.5645 112.062 54.3597 121.83C14.6736 134.825 8.51669 148.411 2.56382 155.973C-3.3685 163.51 -8.69722 175.824 105.29 175.824C99.9985 178.975 460.805 183.387 560.814 175.824C660.823 168.262 558.813 92.8409 503.473 69.8388C512.469 35.052 482.969 31.3969 467.095 33.9177C459.686 -19.775 432.259 2.09282 419.471 19.7383C381.373 6.12608 369.643 38.6441 368.541 56.6047C352.666 41.4799 327.973 50.3027 317.61 56.6047C284.274 23.3303 246.837 42.7404 232.285 56.6047C193.658 23.3304 165.04 61.6462 155.559 84.9634C147.181 76.7709 125.398 70.9731 105.29 113.322Z" fill="#DDE7E8"/>
</svg>
