<svg width="1512" height="519" viewBox="0 0 1512 519" fill="none" xmlns="http://www.w3.org/2000/svg">
<rect width="1512" height="519" fill="#1E1E1E"/>
<g id="MacBook Pro 14&#34; - 1" clip-path="url(#clip0_0_1)">
<rect width="1512" height="982" transform="translate(0 -463)" fill="#9CBED7"/>
<circle id="Ellipse 1" cx="755.5" cy="100.5" r="102.5" fill="#FED377"/>
<path id="Ellipse 2" d="M965 350C965 466.256 401.063 449.5 186.5 449.5C-28.0626 449.5 -314 496.256 -314 380C-314 263.744 -57.5626 -168 157 -168C371.563 -168 965 233.744 965 350Z" fill="#BAD578"/>
<path id="Ellipse 3" d="M1779.5 454.5C1779.5 557.418 1240.36 479 1023.91 479C807.464 479 535 527.918 535 425C535 322.082 1028.55 -188 1245 -188C1461.45 -188 1779.5 351.582 1779.5 454.5Z" fill="#A7CE78"/>
<path id="Ellipse 4" d="M1697 228.642C1697 377.986 529.869 577 133.525 577C-262.818 577 -101.527 302.787 -101.527 153.443C-101.527 4.09865 244.04 209.36 640.383 209.36C1036.73 209.36 1697 79.2978 1697 228.642Z" fill="#8BAC1D"/>
<path id="Ellipse 9" d="M1807.86 237.089C1807.86 386.433 640.728 585.447 244.385 585.447C-151.959 585.447 -214.973 185.699 -62.5 110.5C-45.2619 75.0593 -24.6377 49.5211 -1 32.0129C171.45 -95.7195 504.294 203.947 852.86 203.947C1249.2 203.947 1807.86 87.7449 1807.86 237.089Z" fill="#86A816"/>
<path id="Ellipse 8" d="M1807.86 291.089C1807.86 440.433 640.728 639.447 244.385 639.447C-151.959 639.447 -143.14 291.089 9.33289 215.89C518.36 11.947 456.516 257.947 852.86 257.947C1249.2 257.947 1807.86 141.745 1807.86 291.089Z" fill="#728F12"/>
<g id="Ellipse 5">
<path d="M1713.5 648.5C1746.5 371.357 705.086 481 289 481C-66.7053 481 -28.9712 626.422 -8.77333 481C-5.34477 456.315 -2.5958 431.922 -2.5958 408.633C323.371 316.216 866.883 -72.3006 1211.48 166.399C1344.6 258.607 1441.16 324.458 1510 371.357C1825.5 586.313 1713.5 516.757 1713.5 648.5Z" fill="#697C19"/>
<path d="M1713.5 648.5C1746.5 371.357 705.086 481 289 481C-66.7053 481 -28.9712 626.422 -8.77333 481C-5.34477 456.315 -2.5958 431.922 -2.5958 408.633C323.371 316.216 866.883 -72.3006 1211.48 166.399C1344.6 258.607 1441.16 324.458 1510 371.357C1825.5 586.313 1713.5 516.757 1713.5 648.5Z" fill="#697C19"/>
</g>
<path id="Rectangle 1" d="M0 335H1512V516H0V335Z" fill="#72910F"/>
<g id="Group 5">
<g id="Group 1">
<path id="Polygon 1" d="M232.77 212.506C233.208 210.377 236.249 210.377 236.688 212.506L263.443 342.346C263.699 343.587 262.751 344.75 261.484 344.75H207.973C206.706 344.75 205.758 343.587 206.014 342.346L232.77 212.506Z" fill="#343C00"/>
<path id="Polygon 2" d="M300.227 212.506C300.666 210.377 303.706 210.377 304.145 212.506L330.901 342.346C331.156 343.587 330.209 344.75 328.942 344.75H275.43C274.163 344.75 273.216 343.587 273.471 342.346L300.227 212.506Z" fill="#343C00"/>
<path id="Polygon 3" d="M263.56 241.765C264.657 236.444 272.258 236.444 273.354 241.765L296.429 353.741C297.068 356.843 294.699 359.75 291.532 359.75H245.383C242.216 359.75 239.847 356.843 240.486 353.741L263.56 241.765Z" fill="#343C00"/>
</g>
<g id="Group 3">
<path id="Polygon 1_2" d="M299.825 273.506C300.264 271.377 303.304 271.377 303.743 273.506L330.499 403.346C330.754 404.587 329.807 405.75 328.54 405.75H275.028C273.761 405.75 272.814 404.587 273.069 403.346L299.825 273.506Z" fill="#53660D"/>
<path id="Polygon 2_2" d="M367.282 273.506C367.721 271.377 370.762 271.377 371.2 273.506L397.956 403.346C398.212 404.587 397.264 405.75 395.997 405.75H342.486C341.219 405.75 340.271 404.587 340.527 403.346L367.282 273.506Z" fill="#53660D"/>
<path id="Polygon 3_2" d="M330.616 302.765C331.712 297.444 339.313 297.444 340.41 302.765L363.484 414.741C364.123 417.843 361.754 420.75 358.587 420.75H312.438C309.271 420.75 306.902 417.843 307.541 414.741L330.616 302.765Z" fill="#53660D"/>
</g>
<g id="Group 2">
<path id="Polygon 1_3" d="M400.855 232.506C401.294 230.377 404.334 230.377 404.773 232.506L431.529 362.346C431.784 363.587 430.837 364.75 429.57 364.75H376.058C374.791 364.75 373.844 363.587 374.099 362.346L400.855 232.506Z" fill="#53660D"/>
<path id="Polygon 2_3" d="M468.312 232.506C468.751 230.377 471.792 230.377 472.23 232.506L498.986 362.346C499.242 363.587 498.294 364.75 497.027 364.75H443.516C442.249 364.75 441.301 363.587 441.557 362.346L468.312 232.506Z" fill="#53660D"/>
<path id="Polygon 3_3" d="M431.646 261.765C432.742 256.444 440.343 256.444 441.44 261.765L464.514 373.741C465.153 376.843 462.784 379.75 459.617 379.75H413.468C410.301 379.75 407.932 376.843 408.571 373.741L431.646 261.765Z" fill="#53660D"/>
</g>
</g>
<g id="Group 4">
<g id="Group 1_2">
<path id="Polygon 1_4" d="M56.0599 205.745C56.5656 203.726 59.4344 203.726 59.9401 205.745L92.8843 337.264C93.2006 338.527 92.2458 339.75 90.9443 339.75H25.0557C23.7542 339.75 22.7994 338.527 23.1157 337.264L56.0599 205.745Z" fill="#343C00"/>
<path id="Polygon 2_4" d="M138.06 205.745C138.566 203.726 141.434 203.726 141.94 205.745L174.884 337.264C175.201 338.527 174.246 339.75 172.944 339.75H107.056C105.754 339.75 104.799 338.527 105.116 337.264L138.06 205.745Z" fill="#343C00"/>
<path id="Polygon 3_4" d="M94.1498 232.363C95.414 227.316 102.586 227.316 103.85 232.363L132.95 348.535C133.741 351.691 131.354 354.75 128.1 354.75H69.8999C66.6461 354.75 64.2591 351.691 65.0497 348.535L94.1498 232.363Z" fill="#343C00"/>
</g>
<g id="Group 3_2">
<path id="Polygon 1_5" d="M-8.94006 271.745C-8.43439 269.726 -5.56561 269.726 -5.05994 271.745L27.8843 403.264C28.2006 404.527 27.2458 405.75 25.9443 405.75H-39.9443C-41.2458 405.75 -42.2006 404.527 -41.8843 403.264L-8.94006 271.745Z" fill="#53660D"/>
<path id="Polygon 2_5" d="M73.0599 271.745C73.5656 269.726 76.4344 269.726 76.9401 271.745L109.884 403.264C110.201 404.527 109.246 405.75 107.944 405.75H42.0557C40.7542 405.75 39.7994 404.527 40.1157 403.264L73.0599 271.745Z" fill="#53660D"/>
<path id="Polygon 3_5" d="M29.1498 298.363C30.414 293.316 37.586 293.316 38.8502 298.363L67.9503 414.535C68.7409 417.691 66.3539 420.75 63.1001 420.75H4.89988C1.64607 420.75 -0.740885 417.691 0.0497365 414.535L29.1498 298.363Z" fill="#53660D"/>
</g>
<g id="Group 2_2">
<path id="Polygon 1_6" d="M165.06 264.745C165.566 262.726 168.434 262.726 168.94 264.745L201.884 396.264C202.201 397.527 201.246 398.75 199.944 398.75H134.056C132.754 398.75 131.799 397.527 132.116 396.264L165.06 264.745Z" fill="#53660D"/>
<path id="Polygon 2_6" d="M247.06 264.745C247.566 262.726 250.434 262.726 250.94 264.745L283.884 396.264C284.201 397.527 283.246 398.75 281.944 398.75H216.056C214.754 398.75 213.799 397.527 214.116 396.264L247.06 264.745Z" fill="#53660D"/>
<path id="Polygon 3_6" d="M203.15 291.363C204.414 286.316 211.586 286.316 212.85 291.363L241.95 407.535C242.741 410.691 240.354 413.75 237.1 413.75H178.9C175.646 413.75 173.259 410.691 174.05 407.535L203.15 291.363Z" fill="#53660D"/>
</g>
</g>
<g id="Ellipse 7">
<path d="M-42.393 505.89C-173.393 695.89 969.607 692.614 1081.11 695.89C1137.99 697.561 1334.19 645.471 1512.11 585.513C1682.93 527.944 1836.9 463.122 1834.5 431.671C1775.78 422.946 1714.17 381.414 1512.11 376.193C1392.24 373.097 1222.94 382.779 975.496 419.671C596.285 476.208 -47.2959 441.684 -42.393 505.89Z" fill="#A1DFED"/>
<path d="M-42.393 505.89C-173.393 695.89 969.607 692.614 1081.11 695.89C1137.99 697.561 1334.19 645.471 1512.11 585.513C1682.93 527.944 1836.9 463.122 1834.5 431.671C1775.78 422.946 1714.17 381.414 1512.11 376.193C1392.24 373.097 1222.94 382.779 975.496 419.671C596.285 476.208 -47.2959 441.684 -42.393 505.89Z" fill="#A1DFED"/>
</g>
<g id="Group 6">
<g id="Group 1_3">
<path id="Polygon 1_7" d="M1315.13 169.779C1315.53 167.603 1318.65 167.603 1319.06 169.779L1353.1 351.682C1353.33 352.913 1352.39 354.05 1351.14 354.05H1283.05C1281.8 354.05 1280.85 352.913 1281.08 351.682L1315.13 169.779Z" fill="#343C00"/>
<path id="Polygon 2_7" d="M1399.13 170.779C1399.53 168.603 1402.65 168.603 1403.06 170.779L1437.1 352.682C1437.33 353.913 1436.39 355.05 1435.14 355.05H1367.05C1365.8 355.05 1364.85 353.913 1365.08 352.682L1399.13 170.779Z" fill="#343C00"/>
<path id="Polygon 3_7" d="M1354.27 191.146C1355.29 185.706 1363.08 185.706 1364.1 191.146L1394.53 353.741C1395.1 356.818 1392.74 359.661 1389.61 359.661H1328.75C1325.62 359.661 1323.26 356.818 1323.84 353.741L1354.27 191.146Z" fill="#343C00"/>
</g>
<g id="Group 3_3">
<path id="Polygon 1_8" d="M1143.13 169.779C1143.53 167.603 1146.65 167.603 1147.06 169.779L1181.1 351.682C1181.33 352.913 1180.39 354.05 1179.14 354.05H1111.05C1109.8 354.05 1108.85 352.913 1109.08 351.682L1143.13 169.779Z" fill="#53660D"/>
<path id="Polygon 2_8" d="M1254.08 169.504C1254.49 167.328 1257.61 167.328 1258.01 169.504L1292.06 351.407C1292.29 352.638 1291.34 353.775 1290.09 353.775H1222C1220.75 353.775 1219.81 352.638 1220.04 351.407L1254.08 169.504Z" fill="#53660D"/>
<path id="Polygon 3_8" d="M1199.27 193.146C1200.29 187.706 1208.08 187.706 1209.1 193.146L1239.53 355.741C1240.1 358.818 1237.74 361.661 1234.61 361.661H1173.75C1170.62 361.661 1168.26 358.818 1168.84 355.741L1199.27 193.146Z" fill="#53660D"/>
</g>
<g id="Group 2_3">
<path id="Polygon 1_9" d="M1399.13 169.779C1399.53 167.603 1402.65 167.603 1403.06 169.779L1437.1 351.682C1437.33 352.913 1436.39 354.05 1435.14 354.05H1367.05C1365.8 354.05 1364.85 352.913 1365.08 351.682L1399.13 169.779Z" fill="#53660D"/>
<path id="Polygon 2_9" d="M1502.93 170.779C1503.34 168.603 1506.45 168.603 1506.86 170.779L1540.9 352.682C1541.13 353.913 1540.19 355.05 1538.94 355.05H1470.85C1469.6 355.05 1468.66 353.913 1468.89 352.682L1502.93 170.779Z" fill="#53660D"/>
<path id="Polygon 3_9" d="M1455.27 193.146C1456.29 187.706 1464.08 187.706 1465.1 193.146L1495.53 355.741C1496.1 358.818 1493.74 361.661 1490.61 361.661H1429.75C1426.62 361.661 1424.26 358.818 1424.84 355.741L1455.27 193.146Z" fill="#53660D"/>
</g>
</g>
</g>
<defs>
<clipPath id="clip0_0_1">
<rect width="1512" height="982" fill="white" transform="translate(0 -463)"/>
</clipPath>
</defs>
</svg>
