<svg width="1573" height="723" viewBox="0 0 1573 723" fill="none" xmlns="http://www.w3.org/2000/svg">
<circle cx="786.5" cy="182.5" r="102.5" fill="#FED377"/>
<path d="M348.88 578.535C512.896 578.535 943.983 593.742 943.983 488.239C943.983 382.736 490.346 18.1501 326.329 18.1501C306.081 18.1501 189.001 87.2107 115 200.5C45.6817 306.62 19.2289 456.818 0 474H203C250.849 471.538 303.601 578.535 348.88 578.535Z" fill="#BAD578"/>
<path d="M1573 474.172C1537.5 148 1220.45 0 1158.02 0C1022.52 0 744.955 310.454 648.887 474.172H1361.24H1573Z" fill="#BAD578"/>
<path d="M858.826 319.79C592.374 319.79 337.941 47.8402 206.116 163.758C109.751 284.744 47.1722 356.718 56.3997 482.857L1541.9 479.857C1512.4 388.857 1507.9 310.857 1356.9 294.857C1205.9 278.857 1045.2 319.79 858.826 319.79Z" fill="#8FB021"/>
<path d="M807.559 366.786C516.206 366.786 548.855 154.256 205.5 307.58C114.037 345.533 78.354 379.437 84 496L1443.19 482.991C1449.27 418.207 1450.19 349.491 1350.19 336.991C1198.26 339.127 986.759 366.786 807.559 366.786Z" fill="#718D14"/>
<path d="M1132.4 321.62C868.98 104.998 455.109 457.459 205.932 541.328L1360.59 557.209V507.62C1307.97 465.059 1234.16 405.299 1132.4 321.62Z" fill="#698314"/>
<path d="M129.5 475H1362.5V629H174C79.3199 564.94 -14.5126 529.179 129.5 475Z" fill="#72910F"/>
<path d="M957.608 518.211C1146.27 476.989 1376.02 466.248 1468 474L1393 652.043L206.172 652.043C146.165 618.581 116.409 600.023 170.5 572.5C276.35 531.77 710.05 572.301 957.608 518.211Z" fill="#72B8DF"/>
<path d="M290.154 443.58C290.569 441.415 293.668 441.415 294.083 443.58L309.778 525.457C310.015 526.69 309.07 527.833 307.814 527.833H276.423C275.167 527.833 274.222 526.69 274.459 525.457L290.154 443.58Z" fill="#343C00"/>
<path d="M331.706 418.247C332.121 416.082 335.22 416.082 335.635 418.247L351.33 500.123C351.567 501.357 350.622 502.5 349.366 502.5H317.975C316.719 502.5 315.774 501.357 316.011 500.123L331.706 418.247Z" fill="#343C00"/>
<path d="M308.126 422.283C309.163 416.871 316.909 416.871 317.947 422.283L330.013 485.225C330.604 488.308 328.241 491.167 325.102 491.167H300.97C297.831 491.167 295.469 488.308 296.06 485.225L308.126 422.283Z" fill="#343C00"/>
<path d="M344.73 443.58C345.145 441.415 348.243 441.415 348.658 443.58L364.354 525.457C364.59 526.69 363.645 527.833 362.39 527.833H330.999C329.743 527.833 328.798 526.69 329.034 525.457L344.73 443.58Z" fill="#53660D"/>
<path d="M386.566 443.58C386.981 441.415 390.079 441.415 390.494 443.58L406.19 525.457C406.426 526.69 405.481 527.833 404.225 527.833H372.834C371.579 527.833 370.634 526.69 370.87 525.457L386.566 443.58Z" fill="#53660D"/>
<path d="M362.701 468.95C363.739 463.538 371.485 463.538 372.523 468.95L384.588 531.892C385.179 534.975 382.817 537.833 379.678 537.833H355.546C352.407 537.833 350.045 534.975 350.636 531.892L362.701 468.95Z" fill="#53660D"/>
<path d="M415.43 418.247C415.845 416.082 418.944 416.082 419.359 418.247L435.054 500.123C435.291 501.357 434.346 502.5 433.09 502.5H401.699C400.444 502.5 399.498 501.357 399.735 500.123L415.43 418.247Z" fill="#53660D"/>
<path d="M457.266 418.247C457.681 416.082 460.78 416.082 461.195 418.247L476.89 500.123C477.127 501.357 476.182 502.5 474.926 502.5H443.535C442.279 502.5 441.334 501.357 441.571 500.123L457.266 418.247Z" fill="#53660D"/>
<path d="M425.508 460.95C426.545 455.538 434.292 455.538 435.329 460.95L447.395 523.892C447.986 526.975 445.623 529.833 442.484 529.833H418.353C415.214 529.833 412.851 526.975 413.442 523.892L425.508 460.95Z" fill="#53660D"/>
<path d="M900.63 377.984C901.015 375.775 904.186 375.775 904.571 377.984L924.799 494.174C925.012 495.397 924.071 496.517 922.829 496.517H882.371C881.13 496.517 880.188 495.397 880.401 494.174L900.63 377.984Z" fill="#343C00"/>
<path d="M952.725 378.651C953.11 376.441 956.281 376.441 956.666 378.651L976.894 494.84C977.107 496.064 976.166 497.183 974.924 497.183H934.466C933.225 497.183 932.283 496.064 932.496 494.84L952.725 378.651Z" fill="#343C00"/>
<path d="M923.779 398.701C924.74 393.178 932.669 393.178 933.631 398.701L950.292 494.4C950.825 497.458 948.47 500.257 945.366 500.257H912.043C908.939 500.257 906.585 497.458 907.117 494.4L923.779 398.701Z" fill="#343C00"/>
<path d="M805.742 402.167C806.127 399.958 809.299 399.958 809.683 402.167L829.912 518.357C830.125 519.58 829.183 520.7 827.942 520.7H787.484C786.242 520.7 785.301 519.58 785.514 518.357L805.742 402.167Z" fill="#53660D"/>
<path d="M874.555 401.984C874.94 399.775 878.111 399.775 878.496 401.984L898.724 518.174C898.937 519.397 897.996 520.517 896.754 520.517H856.296C855.055 520.517 854.113 519.397 854.326 518.174L874.555 401.984Z" fill="#53660D"/>
<path d="M839.434 424.217C840.396 418.694 848.325 418.694 849.286 424.217L865.948 519.916C866.48 522.975 864.126 525.774 861.022 525.774H827.699C824.595 525.774 822.241 522.975 822.773 519.916L839.434 424.217Z" fill="#53660D"/>
<path d="M992.417 365.317C992.801 363.108 995.973 363.108 996.357 365.317L1016.59 481.507C1016.8 482.73 1015.86 483.85 1014.62 483.85H974.158C972.916 483.85 971.975 482.73 972.188 481.507L992.417 365.317Z" fill="#53660D"/>
<path d="M1056.79 365.984C1057.18 363.775 1060.35 363.775 1060.73 365.984L1080.96 482.174C1081.18 483.397 1080.23 484.517 1078.99 484.517H1038.53C1037.29 484.517 1036.35 483.397 1036.56 482.174L1056.79 365.984Z" fill="#53660D"/>
<path d="M1026.11 387.367C1027.07 381.844 1035 381.844 1035.96 387.367L1052.62 483.066C1053.15 486.125 1050.8 488.924 1047.7 488.924H1014.37C1011.27 488.924 1008.91 486.125 1009.45 483.066L1026.11 387.367Z" fill="#53660D"/>
</svg>
