<svg width="1728" height="923" viewBox="0 0 1728 923" fill="none" xmlns="http://www.w3.org/2000/svg">
<path d="M156.253 867.803C420.719 867.803 1115.82 890.612 1115.82 732.358C1115.82 574.103 384.358 27.2252 119.891 27.2252C56.6615 27.2252 -9.5188 60.82 -73.6243 114.108V876.347C3.52872 872.654 83.243 867.803 156.253 867.803Z" fill="#BAD578"/>
<path d="M1788.62 242.304C1680.09 104.56 1561.6 0 1460.94 0C1242.46 0 794.899 465.682 639.995 711.258H1788.62V242.304Z" fill="#BAD578"/>
<path d="M981.089 466.4C551.452 466.4 141.195 58.4755 -71.3646 232.352V968.537H1790.04V410.665C1551.53 422.472 1281.6 466.4 981.089 466.4Z" fill="#8FB021"/>
<path d="M897.157 554.693C427.369 554.693 480.014 235.897 -73.6243 465.884V966.495H1790.04V494.521C1545.07 497.726 1186.11 554.693 897.157 554.693Z" fill="#718D14"/>
<path d="M1419.63 482.43C994.881 157.497 327.54 686.188 -74.2406 811.991L1787.58 835.813V761.431C1702.73 697.589 1583.71 607.949 1419.63 482.43Z" fill="#698314"/>
<path d="M-73.6243 711.939H1790.04V943.353H-73.6243V711.939Z" fill="#72910F"/>
<path d="M1137.79 777.317C1442 715.483 1643.27 702.778 1791.58 714.407L1791.58 978.065L-73.8541 978.065L-73.8541 858.331C96.8224 797.235 738.616 858.452 1137.79 777.317Z" fill="#72B8DF"/>
<path d="M62.7698 659.506C63.2084 657.377 66.2489 657.377 66.6875 659.506L93.4433 789.346C93.6989 790.587 92.7513 791.75 91.4844 791.75H37.9729C36.7061 791.75 35.7584 790.587 36.0141 789.346L62.7698 659.506Z" fill="#343C00"/>
<path d="M129.77 621.506C130.208 619.377 133.249 619.377 133.688 621.506L160.443 751.346C160.699 752.587 159.751 753.75 158.484 753.75H104.973C103.706 753.75 102.758 752.587 103.014 751.346L129.77 621.506Z" fill="#343C00"/>
<path d="M93.5602 618.765C94.6567 613.444 102.258 613.444 103.354 618.765L126.429 730.741C127.068 733.843 124.699 736.75 121.532 736.75H75.3828C72.2157 736.75 69.8465 733.843 70.4857 730.741L93.5602 618.765Z" fill="#343C00"/>
<path d="M150.77 659.506C151.208 657.377 154.249 657.377 154.688 659.506L181.443 789.346C181.699 790.587 180.751 791.75 179.484 791.75H125.973C124.706 791.75 123.758 790.587 124.014 789.346L150.77 659.506Z" fill="#53660D"/>
<path d="M218.227 659.506C218.666 657.377 221.706 657.377 222.145 659.506L248.901 789.346C249.156 790.587 248.209 791.75 246.942 791.75H193.43C192.163 791.75 191.216 790.587 191.471 789.346L218.227 659.506Z" fill="#53660D"/>
<path d="M181.56 688.765C182.657 683.444 190.258 683.444 191.354 688.765L214.429 800.741C215.068 803.843 212.699 806.75 209.532 806.75H163.383C160.216 806.75 157.846 803.843 158.486 800.741L181.56 688.765Z" fill="#53660D"/>
<path d="M264.77 621.506C265.208 619.377 268.249 619.377 268.688 621.506L295.443 751.346C295.699 752.587 294.751 753.75 293.484 753.75H239.973C238.706 753.75 237.758 752.587 238.014 751.346L264.77 621.506Z" fill="#53660D"/>
<path d="M332.227 621.506C332.666 619.377 335.706 619.377 336.145 621.506L362.901 751.346C363.156 752.587 362.209 753.75 360.942 753.75H307.43C306.163 753.75 305.216 752.587 305.471 751.346L332.227 621.506Z" fill="#53660D"/>
<path d="M282.832 676.765C283.928 671.444 291.529 671.444 292.626 676.765L315.7 788.741C316.339 791.843 313.97 794.75 310.803 794.75H264.654C261.487 794.75 259.118 791.843 259.757 788.741L282.832 676.765Z" fill="#53660D"/>
<path d="M1047.13 560.504C1047.53 558.328 1050.65 558.328 1051.06 560.504L1085.1 742.407C1085.33 743.638 1084.39 744.775 1083.14 744.775H1015.05C1013.8 744.775 1012.85 743.638 1013.08 742.407L1047.13 560.504Z" fill="#343C00"/>
<path d="M1131.13 561.504C1131.53 559.328 1134.65 559.328 1135.06 561.504L1169.1 743.407C1169.33 744.638 1168.39 745.775 1167.14 745.775H1099.05C1097.8 745.775 1096.85 744.638 1097.08 743.407L1131.13 561.504Z" fill="#343C00"/>
<path d="M1086.27 581.871C1087.29 576.431 1095.08 576.431 1096.1 581.871L1126.53 744.466C1127.1 747.543 1124.74 750.386 1121.61 750.386H1060.75C1057.62 750.386 1055.26 747.543 1055.84 744.466L1086.27 581.871Z" fill="#343C00"/>
<path d="M894.126 596.779C894.533 594.603 897.65 594.603 898.058 596.779L932.101 778.682C932.331 779.913 931.387 781.05 930.135 781.05H862.048C860.796 781.05 859.852 779.913 860.082 778.682L894.126 596.779Z" fill="#53660D"/>
<path d="M1005.08 596.504C1005.49 594.328 1008.61 594.328 1009.01 596.504L1043.06 778.407C1043.29 779.638 1042.34 780.775 1041.09 780.775H973.004C971.752 780.775 970.808 779.638 971.038 778.407L1005.08 596.504Z" fill="#53660D"/>
<path d="M950.269 620.146C951.287 614.706 959.08 614.706 960.098 620.146L990.528 782.741C991.104 785.818 988.743 788.661 985.613 788.661H924.753C921.623 788.661 919.263 785.818 919.839 782.741L950.269 620.146Z" fill="#53660D"/>
<path d="M1195.13 541.504C1195.53 539.328 1198.65 539.328 1199.06 541.504L1233.1 723.407C1233.33 724.638 1232.39 725.775 1231.14 725.775H1163.05C1161.8 725.775 1160.85 724.638 1161.08 723.407L1195.13 541.504Z" fill="#53660D"/>
<path d="M1298.93 542.504C1299.34 540.328 1302.45 540.328 1302.86 542.504L1336.9 724.407C1337.13 725.638 1336.19 726.775 1334.94 726.775H1266.85C1265.6 726.775 1264.66 725.638 1264.89 724.407L1298.93 542.504Z" fill="#53660D"/>
<path d="M1251.27 564.871C1252.29 559.431 1260.08 559.431 1261.1 564.871L1291.53 727.466C1292.1 730.543 1289.74 733.386 1286.61 733.386H1225.75C1222.62 733.386 1220.26 730.543 1220.84 727.466L1251.27 564.871Z" fill="#53660D"/>
</svg>
