<svg width="1340" height="704" viewBox="0 0 1340 704" fill="none" xmlns="http://www.w3.org/2000/svg">
<rect width="1340" height="704" fill="#1E1E1E"/>
<rect width="1728" height="1117" transform="translate(-194 -275)" fill="#FBC3B6"/>
<path d="M416.856 46.8401H457.937H460.631C456.344 38.9075 448.179 29.2187 438.407 27.9806C437.412 27.8546 435.391 27.9208 434.366 27.9806C427.264 28.3946 420.488 33.4195 412.815 46.8401H416.856Z" fill="#2D56FE"/>
<path fill-rule="evenodd" clip-rule="evenodd" d="M416.856 78.2999V46.8401H457.937V78.2999H416.856Z" fill="#D9D9D9"/>
<path d="M434.366 14.6812V27.9806C435.391 27.9208 437.412 27.8546 438.407 27.9806V14.6812H445.141V10.8361H438.407V0H434.366V10.8361L427.968 10.8361V14.6812L434.366 14.6812Z" fill="white"/>
<path fill-rule="evenodd" clip-rule="evenodd" d="M182.134 275.448V389.402V446.03H263.791V275.448H182.134ZM222.542 291.527H207.052V340.814H222.542V291.527Z" fill="#91B3CE"/>
<path d="M207.052 291.527H222.542V340.814H207.052V291.527Z" fill="#404259"/>
<path fill-rule="evenodd" clip-rule="evenodd" d="M345.447 275.448H263.791V446.03H345.447V275.448ZM314.805 291.527H298.642V340.814H314.805V291.527Z" fill="#D9D9D9"/>
<path d="M298.642 291.527H314.805V340.814H298.642V291.527Z" fill="#404259"/>
<path fill-rule="evenodd" clip-rule="evenodd" d="M396.653 171.281H476.794V447.078H396.653V171.281Z" fill="#D9D9D9"/>
<path d="M476.794 171.281V447.078H534.711V171.281H476.794Z" fill="#EDEEF0"/>
<path fill-rule="evenodd" clip-rule="evenodd" d="M321.899 447.078V171.281H396.653V447.078H321.899ZM368.704 235.599H345.47V195.4C355.168 179.461 365 188.759 368.704 195.4V235.599Z" fill="#D9D9D9"/>
<path d="M345.47 235.599H368.704V195.4C365 188.759 355.168 179.461 345.47 195.4V235.599Z" fill="#404259"/>
<path d="M424.938 235.599H448.172V195.4C444.468 188.759 434.636 179.461 424.938 195.4V235.599Z" fill="#404259"/>
<path d="M424.938 306.908H448.172V266.709C444.468 260.068 434.636 250.769 424.938 266.709V306.908Z" fill="#404259"/>
<path fill-rule="evenodd" clip-rule="evenodd" d="M176.41 262.515C171.359 264.845 164.288 270.554 176.41 274.749H346.121C351.396 272.535 358.782 266.989 346.121 262.515H181.461H176.41ZM346.121 259.019C334.335 181.768 203.685 169.533 181.461 259.019H346.121Z" fill="#2D56FE"/>
<path d="M181.461 262.515H346.121V259.019H181.461V262.515Z" fill="#C1D9FF"/>
<path d="M495.651 408.628C489.186 407.789 482.855 412.24 480.498 414.57V439.039L495.651 432.048V408.628Z" fill="#404259"/>
<path d="M430.326 414.57V447.177H452.886V414.57C449.295 410.375 439.754 404.503 430.326 414.57Z" fill="#404259"/>
<path d="M377.459 414.57V447.177H401.03V414.57C392.679 405.062 381.837 410.608 377.459 414.57Z" fill="#404259"/>
<path d="M321.562 414.57V437.238L346.144 441.609V414.57C336.176 404.503 325.603 410.375 321.562 414.57Z" fill="#404259"/>
<path fill-rule="evenodd" clip-rule="evenodd" d="M296.308 388.703V432.747L321.562 437.238V414.57C325.603 410.375 336.176 404.503 346.144 414.57V441.609L377.459 447.177V414.57C381.837 410.608 392.679 405.062 401.03 414.57V447.177H377.459L444.131 458.264L480.498 439.039V414.57C482.855 412.24 489.186 407.789 495.651 408.628V388.703H296.308ZM430.326 447.177V414.57C439.754 404.503 449.295 410.375 452.886 414.57V447.177H430.326Z" fill="#EDEEF0"/>
<path fill-rule="evenodd" clip-rule="evenodd" d="M317.219 155.996C310.078 158.907 300.081 166.04 317.219 171.281H557.153C564.612 168.515 575.053 161.586 557.153 155.996H324.36H317.219ZM557.153 151.629C540.491 55.1143 355.78 39.8292 324.36 151.629H557.153Z" fill="#2D56FE"/>
<path d="M324.36 155.996H557.153V151.629H324.36V155.996Z" fill="#C1D9FF"/>
<path fill-rule="evenodd" clip-rule="evenodd" d="M283.524 373.746C276.383 376.595 266.385 383.575 283.524 388.703H523.458C530.916 385.996 541.358 379.216 523.458 373.746H290.665H283.524ZM523.458 369.472C506.796 275.026 322.084 260.068 290.665 369.472H523.458Z" fill="#2D56FE"/>
<path d="M290.665 373.746H523.458V369.472H290.665V373.746Z" fill="#C1D9FF"/>
<path fill-rule="evenodd" clip-rule="evenodd" d="M489.664 184.177C484.526 186.381 477.333 191.782 489.664 195.75H662.292C667.658 193.656 675.17 188.409 662.292 184.177H494.801H489.664ZM662.292 180.87C650.303 107.795 517.407 96.2219 494.801 180.87H662.292Z" fill="#2D56FE"/>
<path d="M494.801 184.177H662.292V180.87H494.801V184.177Z" fill="#C1D9FF"/>
<path d="M494.762 195.75V388.703V433.096L490.817 465.306L547.388 475.298L551.332 195.75H494.762Z" fill="#91B3CE"/>
<path fill-rule="evenodd" clip-rule="evenodd" d="M859.534 530.436L863.479 515.241H853.04V506.852H842.602V497.414H831.827V487.277H818.357V474.344H807.582V467.702H797.144V406.181H763.134C750.563 394.412 717.407 377.937 685.35 406.181H667.504V195.75H551.332L547.388 475.298L859.534 530.436ZM750.002 484.83H696.125V433.096C719.023 400.099 741.583 419.347 750.002 433.096V484.83Z" fill="#DDDDDD"/>
<path d="M291.234 587.948H330.294V520.834C324.345 509.881 308.205 494.548 291.234 520.834V587.948Z" fill="#404259"/>
<path fill-rule="evenodd" clip-rule="evenodd" d="M107.284 401.986C135.062 373.806 159.11 374.647 176.746 385.05C189.212 392.403 198.476 404.534 203.589 414.57L256.888 423.985L291.234 430.052L340.396 438.736L490.817 465.306L547.388 475.298L859.534 530.436L862.565 530.971C874.799 527.825 906.137 527.895 933.614 553.343V615.213H1024.19V656.81C1011.06 665.316 974.561 677.224 933.614 656.81C922.053 666.015 889.57 678.902 852.126 656.81C836.076 666.248 796.162 679.461 764.914 656.81C749.2 667.064 710.499 681.419 681.405 656.81C665.691 666.248 626.384 679.461 594.866 656.81C580.162 666.598 542.404 680.3 509.001 656.81C493.96 666.015 455.798 678.902 423.472 656.81C408.319 666.598 369.663 680.3 336.259 656.81C323.8 666.248 289.926 679.461 254.098 656.81C237.823 666.831 197.729 680.86 167.559 656.81C152.743 667.646 115.703 682.817 86.0705 656.81C62.4117 636.046 54.7805 623.853 53.4079 618.239C53.0613 616.822 53.1137 615.824 53.4079 615.213L107.284 401.986ZM852.126 615.213V576.763C834.28 550.08 785.926 512.724 735.282 576.763V615.213H852.126ZM291.234 587.948H330.294V520.834C324.345 509.881 308.205 494.548 291.234 520.834V587.948ZM509.001 615.213V545.303C510.252 535.166 532.235 524.889 545.704 545.303V615.213H509.001Z" fill="#DDDDDD"/>
<path d="M1024.19 656.81C1011.06 665.316 974.561 677.224 933.614 656.81C922.053 666.015 889.57 678.902 852.126 656.81C836.076 666.248 796.162 679.461 764.914 656.81C749.2 667.064 710.499 681.419 681.405 656.81C665.691 666.248 626.384 679.461 594.866 656.81C580.162 666.598 542.404 680.3 509.001 656.81C493.96 666.015 455.798 678.902 423.472 656.81C408.319 666.598 369.663 680.3 336.259 656.81C323.8 666.248 289.926 679.461 254.098 656.81C237.823 666.831 197.729 680.86 167.559 656.81C152.743 667.646 115.703 682.817 86.0705 656.81C62.4117 636.046 54.7805 623.853 53.4079 618.239C21.6513 645.903 4.87335 661.962 0 704H53.4079H152.165H1316.57H1340C1339.47 686.417 1334.25 677.721 1316.57 664.151C1305.8 670.023 1288.29 661.704 1280.88 656.81C1249.63 673.868 1210.39 663.918 1194.67 656.81C1170.7 672.75 1126.32 663.452 1107.13 656.81C1082.88 673.589 1041.74 663.801 1024.19 656.81Z" fill="#354CD0"/>
<path d="M573.772 288.731H591.955V252.028C588.588 247.367 580.237 240.842 573.772 252.028V288.731Z" fill="#404259"/>
<path d="M635.393 330.677H653.576V293.974C650.209 289.313 641.858 282.788 635.393 293.974V330.677Z" fill="#404259"/>
<path d="M513.161 252.028H531.344V215.325C527.977 210.664 519.626 204.139 513.161 215.325V252.028Z" fill="#404259"/>
<path d="M513.161 354.097H531.344V317.394C527.977 312.734 519.626 306.209 513.161 317.394V354.097Z" fill="#404259"/>
<path d="M573.772 387.654H591.955V350.951C588.588 346.291 580.237 339.766 573.772 350.951V387.654Z" fill="#404259"/>
<path d="M635.393 429.251H653.576V392.548C650.209 387.887 641.858 381.362 635.393 392.548V429.251Z" fill="#404259"/>
<path d="M464.56 454.192L412.367 612.54H464.56V454.192Z" fill="#91B3CE"/>
<path d="M370.276 621.978H464.56V612.54H412.367H370.276V621.978Z" fill="#90B3CF"/>
<path fill-rule="evenodd" clip-rule="evenodd" d="M464.56 454.192C518.437 415.322 560.64 439.861 575.007 456.989C598.241 464.446 649.02 478.661 666.26 475.865V621.978H575.007H556.824C558.62 620.347 561.134 616.175 556.824 612.54H464.56V454.192ZM464.56 454.192L412.367 612.54H370.276V475.865C388.797 474.825 433.581 469.035 464.56 454.192Z" fill="#D9D9D9"/>
<path d="M370.276 621.978V612.54H327.849C323.359 613.938 317.073 617.783 327.849 621.978H370.276Z" fill="#90B3CF"/>
<path d="M464.56 621.978H556.824C558.62 620.347 561.134 616.175 556.824 612.54H464.56V621.978Z" fill="#91B5D5"/>
<path d="M544.813 479.936C544.813 490.554 535.164 499.162 523.262 499.162C511.36 499.162 501.712 490.554 501.712 479.936C501.712 469.319 511.36 460.711 523.262 460.711C535.164 460.711 544.813 469.319 544.813 479.936Z" fill="#3F4158"/>
<path d="M362.98 477.14C383.52 475.043 426.083 470.219 432.009 467.702C439.417 464.556 486.559 443.233 492.957 437.641C499.355 432.048 541.446 432.048 544.14 437.641C546.833 443.233 583.537 460.362 588.588 462.459C593.639 464.556 662.668 481.684 669.066 476.091" stroke="#91B3CE" stroke-width="16"/>
<path d="M503.396 613.466V542.157C519.558 527.336 534.823 535.982 540.436 542.157V613.466H503.396Z" fill="#3B3D54"/>
</svg>
