<svg width="1353" height="703" viewBox="0 0 1353 703" fill="none" xmlns="http://www.w3.org/2000/svg">
<path d="M0.23148 551.397H1261.46C1294.52 648.273 1198.9 643.795 1158.82 703H34.7094C12.3327 649.62 -2.019 620.872 0.23148 551.397Z" fill="#344869"/>
<path d="M23.9641 588.979H1236.88C1210.3 598.318 1193.28 601.102 1158.82 601.56H34.7094C26.6473 598.67 22.7392 596.731 23.9641 588.979Z" fill="#89AEE1"/>
<path d="M19.7261 560.67H1246.2C1214.26 566.171 1195.18 567.759 1158.82 567.747H34.7094C25.3209 567.592 22.2675 565.868 19.7261 560.67Z" fill="#89AEE1"/>
<path d="M264.67 538.815C240.991 537.242 152.238 546.547 110.821 551.397H1353C1338.36 537.843 1294.65 513.253 1236.88 523.318C1237.86 515.979 1226.28 494.223 1172.15 465.914C1118.03 437.606 1092.58 463.402 1086.63 479.839C1079.73 447.149 1064.58 417.679 1034.57 413.785C981.224 406.865 944.253 439.472 932.435 456.641C863.739 438.083 775.441 464.374 739.879 479.839C716.2 469.773 663.009 484.032 639.373 492.42C593.316 466.628 535.181 493.731 511.87 510.506C446.557 499.183 433.482 515.224 435.108 524.661C337.529 510.506 294.269 540.781 264.67 538.815Z" fill="#FFE5CA"/>
<path d="M350.963 678.718L0.23148 703H1158.82L1088.87 678.718L1044.29 612.569H705.6L371.135 662.809L350.963 678.718Z" fill="#FFBB7A"/>
<path d="M1044.65 612.569L726.218 638.912C774.899 657.785 877.856 695.451 892.428 699.855C906.999 704.258 955.312 688.321 977.647 679.803L1012.45 694.35C1052.78 695.923 1133.12 698.125 1131.82 694.35C1130.52 690.576 1101.79 675.478 1087.59 668.4L1044.65 612.569Z" fill="#C67944"/>
<path d="M746.71 230.008V218.606H772.08V101.046H761.672L826.725 46.0017H830.628V18.8725H826.725L843.964 0L861.528 18.8725H855.998V46.0017H861.528L923.653 101.046H915.196V218.606H942.843V230.008H934.061L963.986 639.305H726.218L752.89 230.008H746.71Z" fill="#1B3D6B"/>
<path d="M842.662 318.08L800.378 272.078L789.97 639.305H842.662V318.08Z" fill="#FBBA7A"/>
<path d="M875.189 349.927L845.265 320.046V640.485H880.393L875.189 349.927Z" fill="#C67944"/>
<path d="M796.15 266.574H759.07L732.073 638.912H786.392L796.15 266.574Z" fill="#FFBA78"/>
<path d="M904.462 348.355H921.376V390.031H904.462V348.355Z" fill="#CC7A42"/>
<path d="M904.462 438.785H921.376V480.462H904.462V438.785Z" fill="#CC7A42"/>
<path d="M904.462 529.216H921.376V570.893H904.462V529.216Z" fill="#CC7A42"/>
<path d="M784.115 103.799H808.835V162.775H784.115V103.799Z" fill="#FDBC7A"/>
<path d="M813.389 103.799H838.109V162.775H813.389V103.799Z" fill="#FDBC7A"/>
<path d="M838.109 103.799H872.587V162.775H838.109V103.799Z" fill="#CC7A42"/>
<path d="M16.1693 118.346L792.897 130.142V144.689C537.24 152.29 30.1556 162.382 16.1693 153.339C5.41691 146.387 7.0621 125.03 16.1693 118.346Z" fill="#FABC81"/>
</svg>
