<svg width="208" height="213" viewBox="0 0 208 213" fill="none" xmlns="http://www.w3.org/2000/svg">
<path d="M166.008 27.9165C167.529 26.1118 170.252 26.0355 171.881 27.7439C189.483 46.2057 204.035 66.7802 207.818 105.08C208.489 132.394 195.866 157.061 177.881 177.324C159.896 197.587 134.958 210.03 108.223 212.08C81.4891 214.129 55.0044 205.629 34.247 188.337C13.4896 171.044 4.16413 146.283 0.817596 119.174C-2.52894 92.0644 4.47604 64.6812 20.3837 42.6878C36.2914 20.6943 55.7683 5.77316 82.1677 1.01031C106.836 -3.44028 138.418 7.73469 153.876 16.5625C155.623 17.5603 156.24 19.7289 155.356 21.5363C150.961 30.5239 137.892 56.5862 126.851 71.8797C115.203 88.0144 154.898 41.0932 166.008 27.9165Z" fill="#60843A"/>
<path d="M166.008 27.9165C167.529 26.1118 170.252 26.0355 171.881 27.7439C189.483 46.2057 204.035 66.7802 207.818 105.08C208.489 132.394 195.866 157.061 177.881 177.324C159.896 197.587 134.958 210.03 108.223 212.08C81.4891 214.129 55.0044 205.629 34.247 188.337C13.4896 171.044 4.16413 146.283 0.817596 119.174C-2.52894 92.0644 4.47604 64.6812 20.3837 42.6878C36.2914 20.6943 55.7683 5.77316 82.1677 1.01031C106.836 -3.44028 138.418 7.73469 153.876 16.5625C155.623 17.5603 156.24 19.7289 155.356 21.5363C150.961 30.5239 137.892 56.5862 126.851 71.8797C115.203 88.0144 154.898 41.0932 166.008 27.9165Z" fill="#60843A"/>
</svg>
