<svg width="237" height="245" viewBox="0 0 237 245" fill="none" xmlns="http://www.w3.org/2000/svg">
<path d="M83.4443 66.6365C71.1126 61.6411 49.5185 62.2246 40.2628 63.1407C34.4136 60.6152 35.6274 56.381 36.9655 54.5796C81.7221 27.7696 119.73 50.0515 133.14 64.5436C138.922 70.1412 141.808 68.0693 142.528 66.3337C168.926 18.3736 220.267 31.4677 230.59 36.5208C238.848 40.5632 234.745 44.4376 231.661 45.8695C169.537 50.5505 152.53 96.8857 149.659 101.737C147.362 105.618 143.479 103.533 141.824 102.006C119.584 77.6698 93.6377 68.2863 83.4443 66.6365Z" fill="#D9D9D9"/>
<path d="M32.6436 211.99C24.978 208.885 11.5545 209.247 5.80104 209.817C2.16505 208.247 2.91958 205.615 3.75134 204.495C31.573 187.829 55.1998 201.68 63.5355 210.689C67.1299 214.168 68.9238 212.88 69.3715 211.802C85.7811 181.989 117.696 190.128 124.112 193.269C129.246 195.782 126.695 198.19 124.779 199.081C86.1608 201.99 75.5886 230.793 73.804 233.809C72.3764 236.221 69.9623 234.926 68.9337 233.976C55.1091 218.848 38.98 213.015 32.6436 211.99Z" fill="#D9D9D9"/>
</svg>
