<svg width="1130" height="316" viewBox="0 0 1130 316" fill="none" xmlns="http://www.w3.org/2000/svg">
<path d="M47.9366 187.457C38.6734 180.723 20.2497 178.018 12.1957 177.508C7.8388 174.162 9.86625 170.222 11.4246 168.67C55.6537 149.34 82.579 176.802 90.513 192.95C94.0881 199.278 97.0209 197.697 98.0405 196.116C131.717 153.403 172.101 173.937 179.649 180.423C185.688 185.612 181.299 188.764 178.35 189.691C124.638 184.836 99.2972 227.389 95.721 231.679C92.86 235.111 90.0635 232.492 89.0229 230.753C75.9354 203.68 56.1789 190.608 47.9366 187.457Z" fill="#D9D9D9"/>
<path d="M976.298 66.6365C963.967 61.6411 942.372 62.2246 933.117 63.1407C927.268 60.6152 928.481 56.381 929.82 54.5796C974.576 27.7696 1012.58 50.0515 1025.99 64.5436C1031.78 70.1412 1034.66 68.0693 1035.38 66.3337C1061.78 18.3736 1113.12 31.4677 1123.44 36.5208C1131.7 40.5633 1127.6 44.4376 1124.52 45.8695C1062.39 50.5505 1045.38 96.8857 1042.51 101.737C1040.22 105.618 1036.33 103.533 1034.68 102.006C1012.44 77.6698 986.492 68.2863 976.298 66.6365Z" fill="#D9D9D9"/>
<path d="M931.51 199.423C923.844 196.317 910.421 196.68 904.667 197.25C901.031 195.68 901.786 193.048 902.618 191.928C930.439 175.262 954.066 189.113 962.402 198.122C965.996 201.601 967.79 200.313 968.238 199.234C984.647 169.421 1016.56 177.561 1022.98 180.702C1028.11 183.215 1025.56 185.623 1023.64 186.513C985.027 189.423 974.455 218.226 972.67 221.242C971.243 223.654 968.828 222.358 967.8 221.409C953.975 206.281 937.846 200.448 931.51 199.423Z" fill="#D9D9D9"/>
<path d="M95.3116 294.168C87.2766 292.041 73.9103 293.872 68.2316 295.053C64.4086 293.951 64.843 291.346 65.538 290.181C91.3099 271.139 116.594 281.798 126.015 289.508C130.029 292.444 131.664 291.012 131.981 289.929C144.756 259.552 177.627 263.823 184.419 266.124C189.852 267.964 187.597 270.553 185.79 271.618C147.563 278.673 140.497 307.437 139.08 310.524C137.946 312.993 135.377 312.018 134.234 311.222C118.587 298.256 101.766 294.451 95.3116 294.168Z" fill="#D9D9D9"/>
</svg>
