<svg width="409" height="268" viewBox="0 0 409 268" fill="none" xmlns="http://www.w3.org/2000/svg">
<path d="M212.126 10.7792C212.533 8.60304 215.65 8.60305 216.058 10.7792L250.101 192.682C250.331 193.913 249.387 195.05 248.135 195.05H180.048C178.796 195.05 177.852 193.913 178.082 192.682L212.126 10.7792Z" fill="#343C00"/>
<path d="M296.126 11.7792C296.533 9.60304 299.65 9.60305 300.058 11.7792L334.101 193.682C334.331 194.913 333.387 196.05 332.135 196.05H264.048C262.796 196.05 261.852 194.913 262.082 193.682L296.126 11.7792Z" fill="#343C00"/>
<path d="M251.269 32.1465C252.287 26.7062 260.08 26.7062 261.098 32.1465L291.528 194.741C292.104 197.818 289.743 200.661 286.613 200.661H225.754C222.624 200.661 220.263 197.818 220.839 194.741L251.269 32.1465Z" fill="#343C00"/>
<path d="M40.1259 10.7792C40.5331 8.60304 43.6503 8.60305 44.0576 10.7792L78.1011 192.682C78.3314 193.913 77.3872 195.05 76.1352 195.05H8.04825C6.79625 195.05 5.85207 193.913 6.08238 192.682L40.1259 10.7792Z" fill="#53660D"/>
<path d="M151.082 10.5041C151.489 8.32802 154.606 8.32803 155.013 10.5041L189.057 192.407C189.287 193.638 188.343 194.775 187.091 194.775H119.004C117.752 194.775 116.808 193.638 117.038 192.407L151.082 10.5041Z" fill="#53660D"/>
<path d="M96.2688 34.1465C97.2869 28.7062 105.08 28.7062 106.098 34.1465L136.528 196.741C137.104 199.818 134.743 202.661 131.613 202.661H70.7535C67.6235 202.661 65.2631 199.818 65.8389 196.741L96.2688 34.1465Z" fill="#53660D"/>
<path d="M296.126 10.7792C296.533 8.60304 299.65 8.60305 300.058 10.7792L334.101 192.682C334.331 193.913 333.387 195.05 332.135 195.05H264.048C262.796 195.05 261.852 193.913 262.082 192.682L296.126 10.7792Z" fill="#53660D"/>
<path d="M399.929 11.7792C400.337 9.60304 403.454 9.60305 403.861 11.7792L437.905 193.682C438.135 194.913 437.191 196.05 435.939 196.05H367.852C366.6 196.05 365.656 194.913 365.886 193.682L399.929 11.7792Z" fill="#53660D"/>
<path d="M352.269 34.1465C353.287 28.7062 361.08 28.7062 362.098 34.1465L392.528 196.741C393.104 199.818 390.743 202.661 387.613 202.661H326.754C323.624 202.661 321.263 199.818 321.839 196.741L352.269 34.1465Z" fill="#53660D"/>
</svg>
